<?xml version="1.0" standalone="no"?>
<!DOCTYPE svg PUBLIC "-//W3C//DTD SVG 20010904//EN"
 "http://www.w3.org/TR/2001/REC-SVG-20010904/DTD/svg10.dtd">
<svg version="1.0" xmlns="http://www.w3.org/2000/svg"
 width="944.000000pt" height="944.000000pt" viewBox="0 0 944.000000 944.000000"
 preserveAspectRatio="xMidYMid meet">
<metadata>
Created by potrace 1.11, written by Peter Selinger 2001-2013
</metadata>
<g transform="translate(0.000000,944.000000) scale(0.100000,-0.100000)"
fill="#000000" stroke="none">
<path d="M4124 6454 c-264 -32 -493 -100 -799 -236 -524 -235 -917 -329 -1485
-358 -238 -12 -459 -6 -905 26 -385 28 -499 11 -598 -88 -92 -92 -123 -205
-114 -411 7 -171 49 -354 151 -664 42 -128 79 -254 83 -280 15 -134 -79 -239
-251 -279 l-61 -14 72 5 c255 18 365 175 308 440 -85 395 -115 590 -115 749 0
177 32 272 102 311 34 18 43 19 165 7 70 -7 198 -21 283 -32 353 -44 499 -54
805 -54 311 1 435 10 693 55 327 56 646 160 971 316 251 120 377 168 566 214
328 80 767 90 1190 28 262 -38 435 -76 1026 -228 195 -50 362 -91 370 -90 17
1 -14 15 -296 134 -689 290 -1057 398 -1540 450 -160 18 -472 17 -621 -1z"/>
<path d="M6365 5694 c-597 -24 -1218 -109 -1671 -230 -511 -135 -748 -170
-1097 -161 -273 7 -429 36 -652 122 -15 6 -14 3 5 -11 40 -30 187 -89 301
-122 198 -57 293 -67 604 -66 321 0 407 10 800 94 568 120 951 168 1624 201
266 13 1050 7 1256 -10 369 -30 690 -76 900 -128 428 -106 689 -257 776 -449
33 -72 38 -118 55 -529 4 -99 10 -159 14 -144 4 14 13 154 20 310 12 263 11
290 -5 344 -26 92 -72 169 -141 240 -272 274 -845 449 -1704 521 -177 14 -876
26 -1085 18z"/>
<path d="M1973 4568 c2 -7 41 -92 86 -189 l81 -176 -85 -183 c-47 -101 -85
-185 -85 -187 0 -2 44 -3 98 -3 l99 0 43 110 c26 67 46 106 51 99 4 -7 25 -57
46 -111 l38 -98 97 0 c54 0 98 2 98 5 0 2 -36 82 -80 177 -45 95 -82 180 -82
188 -1 8 35 95 80 192 45 98 82 180 82 183 0 3 -44 4 -97 3 l-98 -3 -40 -102
c-22 -56 -43 -104 -46 -108 -4 -3 -26 44 -50 104 l-44 111 -99 0 c-74 0 -97
-3 -93 -12z"/>
<path d="M2748 4568 c-47 -12 -113 -69 -141 -122 -21 -38 -22 -54 -22 -236 0
-134 4 -206 13 -231 15 -43 69 -102 114 -125 37 -19 163 -29 241 -20 98 13
178 86 196 181 l8 45 -88 0 c-71 0 -89 -3 -89 -14 0 -29 -42 -46 -110 -46
-111 0 -110 -1 -110 205 0 203 -5 195 110 195 75 0 110 -11 110 -35 0 -12 17
-15 89 -15 l88 0 -7 38 c-15 84 -86 161 -165 181 -53 13 -186 13 -237 -1z"/>
<path d="M3343 4559 c-60 -23 -118 -83 -133 -138 -5 -20 -10 -121 -10 -224 0
-204 6 -236 58 -290 15 -16 45 -39 67 -50 37 -20 58 -22 243 -25 l202 -3 0 85
0 86 -171 0 c-209 0 -229 7 -229 83 l0 37 200 0 200 0 0 85 0 85 -200 0 -200
0 0 38 c0 68 11 72 218 72 l182 0 0 90 0 90 -187 -1 c-163 0 -195 -3 -240 -20z"/>
<path d="M3812 4287 l3 -294 30 -49 c19 -30 49 -60 79 -78 44 -28 56 -30 167
-34 l119 -4 0 86 0 86 -89 0 c-72 0 -93 4 -112 19 l-24 19 -3 271 -3 271 -85
0 -85 0 3 -293z"/>
<path d="M4430 4571 c-76 -24 -138 -80 -161 -148 -10 -27 -14 -93 -14 -223 0
-204 9 -242 71 -303 59 -59 72 -62 297 -65 l207 -4 0 86 0 86 -172 0 c-209 0
-222 4 -226 73 l-3 47 200 0 201 0 0 85 0 85 -200 0 -200 0 0 39 c0 69 7 71
216 71 l185 0 -3 88 -3 87 -185 2 c-102 1 -196 -2 -210 -6z"/>
<path d="M4870 4205 l0 -375 85 0 84 0 3 143 3 142 92 3 c131 4 133 1 133
-163 l0 -125 85 0 85 0 0 143 c0 121 -3 149 -21 186 l-20 45 22 50 c40 94 11
213 -67 275 -51 40 -115 51 -306 51 l-178 0 0 -375z m382 178 c24 -21 23 -48
-2 -73 -17 -17 -33 -20 -115 -20 l-95 0 0 55 0 55 97 0 c76 0 100 -4 115 -17z"/>
<path d="M5680 4575 c0 -3 -9 -38 -19 -78 -11 -39 -54 -200 -96 -357 -41 -157
-78 -291 -80 -297 -3 -10 17 -13 83 -13 l88 0 54 204 c30 112 57 203 61 201 3
-2 30 -94 59 -205 l54 -200 87 0 c67 0 87 3 84 13 -3 6 -29 104 -59 217 -30
113 -73 273 -95 357 -23 84 -41 154 -41 157 0 4 -40 6 -90 6 -49 0 -90 -2 -90
-5z"/>
<path d="M5990 4490 l0 -90 85 0 85 0 0 -285 0 -285 85 0 85 0 1 253 c1 138 2
266 3 282 l1 30 88 3 87 3 0 89 0 90 -260 0 -260 0 0 -90z"/>
<path d="M6712 4565 c-63 -19 -107 -58 -137 -119 -26 -54 -26 -55 -23 -258 3
-180 5 -206 22 -233 33 -50 59 -76 101 -98 36 -20 59 -22 243 -25 l202 -4 0
86 0 86 -175 0 c-175 0 -176 0 -201 25 -19 19 -24 34 -22 58 l3 32 198 3 197
2 0 85 0 85 -200 0 -200 0 0 33 c0 18 7 43 16 55 15 21 20 22 200 22 l184 0 0
90 0 90 -182 -1 c-123 0 -197 -5 -226 -14z"/>
</g>
</svg>
